<svg height="65" viewBox="0 0 282 65" width="282" xmlns="http://www.w3.org/2000/svg" xmlns:xlink="http://www.w3.org/1999/xlink">
	<filter id="a">
		<feColorMatrix in="SourceGraphic" type="matrix" values="0 0 0 0 0.849436 0 0 0 0 0.625335 0 0 0 0 0.046457 0 0 0 1.000000 0"/>
	</filter>
	<g fill="none" fill-rule="evenodd">
		<g filter="url(#a)">
			<path d="m64.8024691 59.0341278v202.4658722h-63.99999996v-202.4658722c0-78.0455037 63.99999996-78.0455037 63.99999996 0z" fill="#000" transform="matrix(0 -1 1 0 20 65.302469)"/>
		</g>
		<g transform="matrix(0 -1 1 0 -.720165 56.977366)">
			<path d="m42.0773506 9.36655191c-4.479133-4.70720765-10.6488824-7.87798272-16.8386391-8.63113595-.1950711-.02259459-.3851404-.02008408-.5702079.00753153-6.1722503.76821629-12.3219923 3.93145983-16.7886208 8.62611493-4.16651905 4.37833078-6.90251654 10.09225318-6.90251654 16.46141898v56.6722696c0 1.395844 1.25545771 2.4251534 2.6109519 2.1816338 7.02506124-.6853694 14.14015524-1.0293094 21.34278124-1.0293094 7.2176314 0 14.430261.348961 21.6303861 1.0493935 1.3730005.1280361 2.4158808-.8937418 2.4158808-2.1992074v-56.6772906c0-6.3716763-2.7359975-12.0855988-6.9000157-16.46141899z" fill="#ac7c02" fill-rule="nonzero"/>
			<path d="m15.3817641 12.6862649c.2759527-.2415067.847569-.1100197.847569.1958888v62.2818907c0 .1744215-.197109.3166421-.4494087.322009l-2.0696452.0751354c-1.9237845 0-3.4809461-1.059946-3.4809461-2.369449v-50.7888559c0-3.587716 1.9908016-6.9231916 5.152431-9.716619" fill="#fff"/>
		</g>
		<g fill="#ac7c02">
			<rect height="49" rx="4" width="8" x="185.5" y="7.5"/>
			<rect height="49" rx="4" width="8" x="169.5" y="7.5"/>
		</g>
	</g>
</svg>